# Tiled2Unity generated file. Do not modify by hand.
# Wavefront file for 'crisis-map_mesh_0003.obj'

# Vertices (Count = 228)
v -736 -704 0
v -752 -704 0
v -752 -688 0
v -736 -688 0
v -720 -704 0
v -736 -704 0
v -736 -688 0
v -720 -688 0
v -704 -704 0
v -720 -704 0
v -720 -688 0
v -704 -688 0
v -688 -704 0
v -704 -704 0
v -704 -688 0
v -688 -688 0
v -672 -704 0
v -688 -704 0
v -688 -688 0
v -672 -688 0
v -656 -704 0
v -672 -704 0
v -672 -688 0
v -656 -688 0
v -640 -704 0
v -656 -704 0
v -656 -688 0
v -640 -688 0
v -736 -720 0
v -752 -720 0
v -752 -704 0
v -736 -704 0
v -720 -720 0
v -736 -720 0
v -736 -704 0
v -720 -704 0
v -704 -720 0
v -720 -720 0
v -720 -704 0
v -704 -704 0
v -688 -720 0
v -704 -720 0
v -704 -704 0
v -688 -704 0
v -672 -720 0
v -688 -720 0
v -688 -704 0
v -672 -704 0
v -656 -720 0
v -672 -720 0
v -672 -704 0
v -656 -704 0
v -640 -720 0
v -656 -720 0
v -656 -704 0
v -640 -704 0
v -736 -736 0
v -752 -736 0
v -752 -720 0
v -736 -720 0
v -720 -736 0
v -736 -736 0
v -736 -720 0
v -720 -720 0
v -704 -736 0
v -720 -736 0
v -720 -720 0
v -704 -720 0
v -688 -736 0
v -704 -736 0
v -704 -720 0
v -688 -720 0
v -672 -736 0
v -688 -736 0
v -688 -720 0
v -672 -720 0
v -656 -736 0
v -672 -736 0
v -672 -720 0
v -656 -720 0
v -640 -736 0
v -656 -736 0
v -656 -720 0
v -640 -720 0
v -736 -752 0
v -752 -752 0
v -752 -736 0
v -736 -736 0
v -720 -752 0
v -736 -752 0
v -736 -736 0
v -720 -736 0
v -704 -752 0
v -720 -752 0
v -720 -736 0
v -704 -736 0
v -688 -752 0
v -704 -752 0
v -704 -736 0
v -688 -736 0
v -672 -752 0
v -688 -752 0
v -688 -736 0
v -672 -736 0
v -656 -752 0
v -672 -752 0
v -672 -736 0
v -656 -736 0
v -640 -752 0
v -656 -752 0
v -656 -736 0
v -640 -736 0
v -736 -768 0
v -752 -768 0
v -752 -752 0
v -736 -752 0
v -720 -768 0
v -736 -768 0
v -736 -752 0
v -720 -752 0
v -704 -768 0
v -720 -768 0
v -720 -752 0
v -704 -752 0
v -688 -768 0
v -704 -768 0
v -704 -752 0
v -688 -752 0
v -672 -768 0
v -688 -768 0
v -688 -752 0
v -672 -752 0
v -656 -768 0
v -672 -768 0
v -672 -752 0
v -656 -752 0
v -640 -768 0
v -656 -768 0
v -656 -752 0
v -640 -752 0
v -736 -784 0
v -752 -784 0
v -752 -768 0
v -736 -768 0
v -720 -784 0
v -736 -784 0
v -736 -768 0
v -720 -768 0
v -704 -784 0
v -720 -784 0
v -720 -768 0
v -704 -768 0
v -688 -784 0
v -704 -784 0
v -704 -768 0
v -688 -768 0
v -672 -784 0
v -688 -784 0
v -688 -768 0
v -672 -768 0
v -656 -784 0
v -672 -784 0
v -672 -768 0
v -656 -768 0
v -640 -784 0
v -656 -784 0
v -656 -768 0
v -640 -768 0
v -880 -816 0
v -896 -816 0
v -896 -800 0
v -880 -800 0
v -848 -816 0
v -864 -816 0
v -864 -800 0
v -848 -800 0
v -656 -816 0
v -672 -816 0
v -672 -800 0
v -656 -800 0
v -640 -816 0
v -656 -816 0
v -656 -800 0
v -640 -800 0
v -624 -816 0
v -640 -816 0
v -640 -800 0
v -624 -800 0
v -880 -832 0
v -896 -832 0
v -896 -816 0
v -880 -816 0
v -848 -832 0
v -864 -832 0
v -864 -816 0
v -848 -816 0
v -656 -832 0
v -672 -832 0
v -672 -816 0
v -656 -816 0
v -640 -832 0
v -656 -832 0
v -656 -816 0
v -640 -816 0
v -624 -832 0
v -640 -832 0
v -640 -816 0
v -624 -816 0
v -432 -832 0
v -448 -832 0
v -448 -816 0
v -432 -816 0
v -656 -848 0
v -672 -848 0
v -672 -832 0
v -656 -832 0
v -640 -848 0
v -656 -848 0
v -656 -832 0
v -640 -832 0
v -624 -848 0
v -640 -848 0
v -640 -832 0
v -624 -832 0
v -432 -848 0
v -448 -848 0
v -448 -832 0
v -432 -832 0

# Texture cooridinates (Count = 104)
vt 0.4566116 0.2908745
vt 0.4731405 0.2908745
vt 0.4731405 0.3212928
vt 0.4566116 0.3212928
vt 0.4390496 0.2908745
vt 0.4555785 0.2908745
vt 0.4555785 0.3212928
vt 0.4390496 0.3212928
vt 0.4214876 0.2908745
vt 0.4380165 0.2908745
vt 0.4380165 0.3212928
vt 0.4214876 0.3212928
vt 0.4566116 0.2262357
vt 0.4731405 0.2262357
vt 0.4731405 0.256654
vt 0.4566116 0.256654
vt 0.4390496 0.2262357
vt 0.4555785 0.2262357
vt 0.4555785 0.256654
vt 0.4390496 0.256654
vt 0.4214876 0.2262357
vt 0.4380165 0.2262357
vt 0.4380165 0.256654
vt 0.4214876 0.256654
vt 0.3336777 0.2908745
vt 0.3502066 0.2908745
vt 0.3502066 0.3212928
vt 0.3336777 0.3212928
vt 0.3161157 0.2908745
vt 0.3326446 0.2908745
vt 0.3326446 0.3212928
vt 0.3161157 0.3212928
vt 0.2985537 0.2908745
vt 0.3150826 0.2908745
vt 0.3150826 0.3212928
vt 0.2985537 0.3212928
vt 0.3336777 0.2585551
vt 0.3502066 0.2585551
vt 0.3502066 0.2889734
vt 0.3336777 0.2889734
vt 0.3161157 0.2585551
vt 0.3326446 0.2585551
vt 0.3326446 0.2889734
vt 0.3161157 0.2889734
vt 0.2985537 0.2585551
vt 0.3150826 0.2585551
vt 0.3150826 0.2889734
vt 0.2985537 0.2889734
vt 0.1931818 0.904943
vt 0.2097107 0.904943
vt 0.2097107 0.9353612
vt 0.1931818 0.9353612
vt 0.1931818 0.9695817
vt 0.2097107 0.9695817
vt 0.2097107 1
vt 0.1931818 1
vt 0.1931818 0.9372624
vt 0.2097107 0.9372624
vt 0.2097107 0.9676806
vt 0.1931818 0.9676806
vt 0.1931818 0.8726236
vt 0.2097107 0.8726236
vt 0.2097107 0.9030418
vt 0.1931818 0.9030418
vt 0.5619835 0.9372624
vt 0.5785124 0.9372624
vt 0.5785124 0.9676806
vt 0.5619835 0.9676806
vt 0.1756198 0.8726236
vt 0.1921488 0.8726236
vt 0.1921488 0.9030418
vt 0.1756198 0.9030418
vt 0.3161157 0.2262357
vt 0.3326446 0.2262357
vt 0.3326446 0.256654
vt 0.3161157 0.256654
vt 0.4214876 0.6787072
vt 0.4380165 0.6787072
vt 0.4380165 0.7091255
vt 0.4214876 0.7091255
vt 0.4214876 0.6463878
vt 0.4380165 0.6463878
vt 0.4380165 0.6768061
vt 0.4214876 0.6768061
vt 0.2283058 0.6463878
vt 0.2448347 0.6463878
vt 0.2448347 0.6768061
vt 0.2283058 0.6768061
vt 0.5092975 0.6787072
vt 0.5258265 0.6787072
vt 0.5258265 0.7091255
vt 0.5092975 0.7091255
vt 0.5268595 0.6787072
vt 0.5433884 0.6787072
vt 0.5433884 0.7091255
vt 0.5268595 0.7091255
vt 0.4917355 0.6787072
vt 0.5082645 0.6787072
vt 0.5082645 0.7091255
vt 0.4917355 0.7091255
vt 0.2283058 0.6140684
vt 0.2448347 0.6140684
vt 0.2448347 0.6444867
vt 0.2283058 0.6444867

# Normal
vn 0 0 -1

# Mesh description
g crisis-map_mesh_0003

# Faces
f 1/1/1 2/2/1 3/3/1 4/4/1
f 5/5/1 6/6/1 7/7/1 8/8/1
f 9/5/1 10/6/1 11/7/1 12/8/1
f 13/5/1 14/6/1 15/7/1 16/8/1
f 17/5/1 18/6/1 19/7/1 20/8/1
f 21/5/1 22/6/1 23/7/1 24/8/1
f 25/9/1 26/10/1 27/11/1 28/12/1
f 29/13/1 30/14/1 31/15/1 32/16/1
f 33/17/1 34/18/1 35/19/1 36/20/1
f 37/17/1 38/18/1 39/19/1 40/20/1
f 41/17/1 42/18/1 43/19/1 44/20/1
f 45/17/1 46/18/1 47/19/1 48/20/1
f 49/17/1 50/18/1 51/19/1 52/20/1
f 53/21/1 54/22/1 55/23/1 56/24/1
f 57/25/1 58/26/1 59/27/1 60/28/1
f 61/29/1 62/30/1 63/31/1 64/32/1
f 65/29/1 66/30/1 67/31/1 68/32/1
f 69/29/1 70/30/1 71/31/1 72/32/1
f 73/29/1 74/30/1 75/31/1 76/32/1
f 77/29/1 78/30/1 79/31/1 80/32/1
f 81/33/1 82/34/1 83/35/1 84/36/1
f 85/37/1 86/38/1 87/39/1 88/40/1
f 89/41/1 90/42/1 91/43/1 92/44/1
f 93/41/1 94/42/1 95/43/1 96/44/1
f 97/41/1 98/42/1 99/43/1 100/44/1
f 101/41/1 102/42/1 103/43/1 104/44/1
f 105/41/1 106/42/1 107/43/1 108/44/1
f 109/45/1 110/46/1 111/47/1 112/48/1
f 113/49/1 114/50/1 115/51/1 116/52/1
f 117/53/1 118/54/1 119/55/1 120/56/1
f 121/57/1 122/58/1 123/59/1 124/60/1
f 125/41/1 126/42/1 127/43/1 128/44/1
f 129/41/1 130/42/1 131/43/1 132/44/1
f 133/41/1 134/42/1 135/43/1 136/44/1
f 137/45/1 138/46/1 139/47/1 140/48/1
f 141/61/1 142/62/1 143/63/1 144/64/1
f 145/65/1 146/66/1 147/67/1 148/68/1
f 149/69/1 150/70/1 151/71/1 152/72/1
f 153/73/1 154/74/1 155/75/1 156/76/1
f 157/73/1 158/74/1 159/75/1 160/76/1
f 161/77/1 162/78/1 163/79/1 164/80/1
f 165/81/1 166/82/1 167/83/1 168/84/1
f 169/85/1 170/86/1 171/87/1 172/88/1
f 173/85/1 174/86/1 175/87/1 176/88/1
f 177/89/1 178/90/1 179/91/1 180/92/1
f 181/93/1 182/94/1 183/95/1 184/96/1
f 185/97/1 186/98/1 187/99/1 188/100/1
f 189/101/1 190/102/1 191/103/1 192/104/1
f 193/101/1 194/102/1 195/103/1 196/104/1
f 197/93/1 198/94/1 199/95/1 200/96/1
f 201/89/1 202/90/1 203/91/1 204/92/1
f 205/89/1 206/90/1 207/91/1 208/92/1
f 209/85/1 210/86/1 211/87/1 212/88/1
f 213/97/1 214/98/1 215/99/1 216/100/1
f 217/93/1 218/94/1 219/95/1 220/96/1
f 221/89/1 222/90/1 223/91/1 224/92/1
f 225/101/1 226/102/1 227/103/1 228/104/1

